<svg width="52" height="12" viewBox="0 0 52 12" fill="none" xmlns="http://www.w3.org/2000/svg">
<path d="M4.184 2.34796C4.976 2.34796 5.616 2.59996 6.104 3.10396C6.592 3.59996 6.836 4.29596 6.836 5.19196V9.09196H5.156V5.41996C5.156 4.89196 5.024 4.48796 4.76 4.20796C4.496 3.91996 4.136 3.77596 3.68 3.77596C3.216 3.77596 2.848 3.91996 2.576 4.20796C2.312 4.48796 2.18 4.89196 2.18 5.41996V9.09196H0.5V2.44396H2.45359C3.45029 2.44396 3.45029 2.44396 3.032 2.59996C3.384 2.43196 3.768 2.34796 4.184 2.34796Z" fill="white"/>
<path d="M13.9416 5.88C13.9416 6.12 13.9256 6.336 13.8936 6.528H9.03365C9.07365 7.008 9.24165 7.384 9.53765 7.656C9.83365 7.928 10.1976 8.064 10.6296 8.064C11.2536 8.064 11.6976 7.796 11.9616 7.26H13.7736C13.5816 7.9 13.2136 8.428 12.6696 8.844C12.1256 9.252 11.4576 9.456 10.6656 9.456C10.0256 9.456 9.44965 9.316 8.93765 9.036C8.43365 8.748 8.03765 8.344 7.74965 7.824C7.46965 7.304 7.32965 6.704 7.32965 6.024C7.32965 5.336 7.46965 4.732 7.74965 4.212C8.02965 3.692 8.42165 3.292 8.92565 3.012C9.42965 2.732 10.0096 2.592 10.6656 2.592C11.2976 2.592 11.8616 2.728 12.3576 3C12.8616 3.272 13.2496 3.66 13.5216 4.164C13.8016 4.66 13.9416 5.232 13.9416 5.88ZM12.2016 5.4C12.1936 4.968 12.0376 4.624 11.7336 4.368C11.4296 4.104 11.0576 3.972 10.6176 3.972C10.2016 3.972 9.84965 4.1 9.56165 4.356C9.28165 4.604 9.10965 4.952 9.04565 5.4H12.2016Z" fill="white"/>
<path d="M23.9018 2.76L21.9578 9.408H20.1458L18.9338 4.764L17.7218 9.408H15.8978L13.9418 2.76H15.6458L16.8218 7.824L18.0938 2.76H19.8698L21.1178 7.812L22.2938 2.76H23.9018Z" fill="white"/>
<path d="M27.0308 9.516C26.4868 9.516 25.9988 9.42 25.5668 9.228C25.1348 9.028 24.7908 8.76 24.5348 8.424C24.2868 8.088 24.1508 7.716 24.1268 7.308H25.8188C25.8508 7.564 25.9748 7.776 26.1908 7.944C26.4148 8.112 26.6908 8.196 27.0188 8.196C27.3388 8.196 27.5868 8.132 27.7628 8.004C27.9468 7.876 28.0388 7.712 28.0388 7.512C28.0388 7.296 27.9268 7.136 27.7028 7.032C27.4868 6.92 27.1388 6.8 26.6588 6.672C26.1628 6.552 25.7548 6.428 25.4348 6.3C25.1228 6.172 24.8508 5.976 24.6188 5.712C24.3948 5.448 24.2828 5.092 24.2828 4.644C24.2828 4.276 24.3868 3.94 24.5948 3.636C24.8108 3.332 25.1148 3.092 25.5068 2.916C25.9068 2.74 26.3748 2.652 26.9108 2.652C27.7028 2.652 28.3348 2.852 28.8068 3.252C29.2788 3.644 29.5388 4.176 29.5868 4.848H27.9788C27.9548 4.584 27.8428 4.376 27.6428 4.224C27.4508 4.064 27.1908 3.984 26.8628 3.984C26.5588 3.984 26.3228 4.04 26.1548 4.152C25.9948 4.264 25.9148 4.42 25.9148 4.62C25.9148 4.844 26.0268 5.016 26.2508 5.136C26.4748 5.248 26.8228 5.364 27.2948 5.484C27.7748 5.604 28.1708 5.728 28.4828 5.856C28.7948 5.984 29.0628 6.184 29.2868 6.456C29.5188 6.72 29.6388 7.072 29.6468 7.512C29.6468 7.896 29.5388 8.24 29.3228 8.544C29.1148 8.848 28.8108 9.088 28.4108 9.264C28.0188 9.432 27.5588 9.516 27.0308 9.516Z" fill="white"/>
<path d="M31.3843 1.968C31.0883 1.968 30.8403 1.876 30.6403 1.692C30.4483 1.5 30.3523 1.264 30.3523 0.984C30.3523 0.704 30.4483 0.472 30.6403 0.288C30.8403 0.096 31.0883 0 31.3843 0C31.6803 0 31.9243 0.096 32.1163 0.288C32.3163 0.472 32.4163 0.704 32.4163 0.984C32.4163 1.264 32.3163 1.5 32.1163 1.692C31.9243 1.876 31.6803 1.968 31.3843 1.968ZM32.2123 2.76V9.408H30.5323V2.76H32.2123Z" fill="#7066E0"/>
<path d="M36.112 2.5C36.608 2.5 37.044 2.59318 37.42 2.77955C37.796 2.95845 38.092 3.19327 38.308 3.484V2.60064H40V8.84009C40 9.41409 39.876 9.92473 39.628 10.372C39.38 10.8267 39.008 11.1845 38.512 11.4455C38.016 11.7138 37.416 11.848 36.712 11.848C35.768 11.848 34.992 11.643 34.384 11.233C33.784 10.823 33.444 10.2639 33.364 9.55573H35.032C35.12 9.839 35.308 10.0626 35.596 10.2266C35.892 10.3981 36.248 10.4838 36.664 10.4838C37.152 10.4838 37.548 10.3459 37.852 10.0701C38.156 9.80173 38.308 9.39173 38.308 8.84009V7.87846C38.092 8.16918 37.792 8.41145 37.408 8.60527C37.032 8.79909 36.6 8.896 36.112 8.896C35.552 8.896 35.04 8.76182 34.576 8.49345C34.112 8.22509 33.744 7.84864 33.472 7.36409C33.208 6.87209 33.076 6.30927 33.076 5.67564C33.076 5.04945 33.208 4.49409 33.472 4.00955C33.744 3.525 34.108 3.15227 34.564 2.89136C35.028 2.63045 35.544 2.5 36.112 2.5ZM38.2144 5.67564C38.2144 5.29545 38.16 4.98236 38 4.714C37.84 4.43818 37.6393 4.22945 37.3673 4.08782C37.0953 3.93873 36.856 3.87536 36.544 3.87536C36.232 3.87536 35.944 3.94618 35.68 4.08782C35.416 4.22945 35.2 4.43818 35.032 4.714C34.872 4.98236 34.792 5.30291 34.792 5.67564C34.792 6.04836 34.872 6.37636 35.032 6.65964C35.2 6.93545 35.416 7.14791 35.68 7.297C35.952 7.44609 36.24 7.52064 36.544 7.52064C36.856 7.52064 37.148 7.44982 37.42 7.30818C37.692 7.15909 37.84 6.928 38 6.65964C38.16 6.38382 38.2144 6.05582 38.2144 5.67564Z" fill="#7066E0"/>
<path d="M44.801 2.664C45.305 2.664 45.753 2.776 46.145 3C46.537 3.216 46.841 3.54 47.057 3.972C47.281 4.396 47.393 4.908 47.393 5.508V9.408H45.713V5.736C45.713 5.208 45.581 4.804 45.317 4.524C45.053 4.236 44.693 4.092 44.237 4.092C43.773 4.092 43.405 4.236 43.133 4.524C42.869 4.804 42.737 5.208 42.737 5.736V9.408H41.057V0.528H42.737V3.588C42.953 3.3 43.241 3.076 43.601 2.916C43.961 2.748 44.361 2.664 44.801 2.664Z" fill="#7066E0"/>
<path d="M50.484 4.232V7.448C50.484 7.672 50.536 7.836 50.64 7.94C50.752 8.036 50.936 8.084 51.192 8.084H51.972V9.5H50.916C49.5 9.5 48.792 8.812 48.792 7.436V4.232H48V2.852H48.792V1.208H50.484V2.852H51.972V4.232H50.484Z" fill="#7066E0"/>
<path d="M0 2.34796H4V3.34796H0V2.34796Z" fill="white"/>
<path d="M35 3.1001C35 2.82396 35.2239 2.6001 35.5 2.6001H39.5C39.7761 2.6001 40 2.82396 40 3.1001C40 3.37624 39.7761 3.6001 39.5 3.6001H35.5C35.2239 3.6001 35 3.37624 35 3.1001Z" fill="#7066E0"/>
</svg>
