<svg width="7" height="7" viewBox="0 0 7 7" fill="none" xmlns="http://www.w3.org/2000/svg">
<path d="M4.184 0C4.976 0 5.616 0.252 6.104 0.756C6.592 1.252 6.836 1.948 6.836 2.844V6.744H5.156V3.072C5.156 2.544 5.024 2.14 4.76 1.86C4.496 1.572 4.136 1.428 3.68 1.428C3.216 1.428 2.848 1.572 2.576 1.86C2.312 2.14 2.18 2.544 2.18 3.072V6.744H0.5V0.0960002H2.45359C3.45029 0.0960002 3.45029 0.0960002 3.032 0.252C3.384 0.0840001 3.768 0 4.184 0Z" fill="#7066E0"/>
<path d="M0 0H4V1H0V0Z" fill="#7066E0"/>
</svg>
